<svg xmlns="http://www.w3.org/2000/svg">
  <symbol id="wallet" viewBox="0 0 32 29">
  <g>
    <path fill-rule="evenodd" clip-rule="evenodd" d="M28 5.27273V3.95455C28 1.77356 26.2061 0 24 0H4C1.79395 0 0 1.77356 0 3.95455V25.0455C0 27.2264 1.79395 29 4 29H28C30.2061 29 32 27.2264 32 25.0455V9.22727C32 7.04629 30.2061 5.27273 28 5.27273ZM4 2.63636H24C24.7354 2.63636 25.3333 3.22755 25.3333 3.95455V5.27273H4C3.26465 5.27273 2.66667 4.68154 2.66667 3.95455C2.66667 3.22755 3.26465 2.63636 4 2.63636ZM4 26.3636H28C28.7354 26.3636 29.3333 25.7724 29.3333 25.0455V21.75H22C19.4268 21.75 17.3333 19.6797 17.3333 17.1364C17.3333 14.593 19.4268 12.5227 22 12.5227H29.3333V9.22727C29.3333 8.50028 28.7354 7.90909 28 7.90909H4C3.53255 7.90909 3.08398 7.82928 2.66667 7.68317V25.0455C2.66667 25.7724 3.26465 26.3636 4 26.3636ZM29.3333 19.1136H26.2132C26.5065 18.5012 26.6667 17.8312 26.6667 17.1364C26.6667 16.4284 26.4993 15.7596 26.21 15.1591H29.3333V19.1136ZM22 15.1591C20.8975 15.1591 20 16.0464 20 17.1364C20 18.2264 20.8975 19.1136 22 19.1136C22.5339 19.1136 23.0394 18.9073 23.4219 18.5324C23.7913 18.1639 24 17.6642 24 17.1364C24 16.0464 23.1025 15.1591 22 15.1591Z"/>  
  </g>
  </symbol>
  <symbol id="folder" viewBox="0 0 32 32">
  <g>
    <path fill-rule="evenodd" clip-rule="evenodd" d="M29.3333 6.66667H15.425L12.2 1.29167C11.7167 0.5 10.8417 0 9.90833 0H2.66667C1.2 0 0 1.2 0 2.66667V29.3333C0 30.8 1.2 32 2.66667 32H29.3333C30.8 32 32 30.8 32 29.3333V9.33333C32 7.86667 30.8 6.66667 29.3333 6.66667ZM9.90833 2.66667L12.3083 6.66667H2.66667V2.66667H9.90833ZM2.66667 29.3333H29.3333V9.33333H2.66667V29.3333Z"/>
    <path fill-rule="evenodd" clip-rule="evenodd" d="M10.3 17H20.7C21.415 17 22 16.325 22 15.5C22 14.675 21.415 14 20.7 14H10.3C9.585 14 9 14.675 9 15.5C9 16.325 9.585 17 10.3 17Z"/>
    <path fill-rule="evenodd" clip-rule="evenodd" d="M10.2857 23H16.7143C17.4214 23 18 22.325 18 21.5C18 20.675 17.4214 20 16.7143 20H10.2857C9.57857 20 9 20.675 9 21.5C9 22.325 9.57857 23 10.2857 23Z"/>
  </g>
  </symbol>
  <symbol id="atm" viewBox="0 0 32 28">
  <g>
    <path fill-rule="evenodd" clip-rule="evenodd" d="M1.3125 0H30.6875C31.4125 0 32 0.593883 32 1.31904V12.0027C32 12.7278 31.4125 13.3155 30.6875 13.3155H25.9875V26.6872C25.9875 27.4124 25.4 28 24.675 28H7.31875C6.59375 28 6.00625 27.4124 6.00625 26.6872V13.3155H1.3125C0.5875 13.3155 0 12.7278 0 12.0027V1.31279C0 0.587631 0.5875 0 1.3125 0ZM25.9875 10.6836H29.3687H29.375V2.63184H2.63125V10.6836H6.0125V6.65774C6.0125 5.93257 6.6 5.34494 7.325 5.34494C8.05 5.34494 8.6375 5.93257 8.6375 6.65774V25.3744H23.3625V6.65774C23.3625 5.93257 23.95 5.34494 24.675 5.34494C25.4 5.34494 25.9875 5.93257 25.9875 6.65774V10.6836Z"/>
    <path fill-rule="evenodd" clip-rule="evenodd" d="M16.9218 16.6705C15.6973 17.9406 13.5588 17.047 13.5588 15.2025C13.5588 14.4621 12.9861 13.8621 12.2794 13.8621C11.5727 13.8621 11 14.4621 11 15.2025C11 17.3151 12.3342 19.1725 14.2534 19.7597V20.6596C14.2534 21.4 14.826 22 15.5328 22C16.2395 22 16.8122 21.4 16.8122 20.6596V19.7597C17.6164 19.5171 18.317 19.0448 18.847 18.4449C20.9124 16.1216 20.0899 12.3239 17.2813 11.1048L14.759 10.007C13.6502 9.52826 13.2847 8.08578 13.9548 7.14115C14.3752 6.54756 14.2594 5.70505 13.6929 5.26464C13.1263 4.82424 12.3221 4.94551 11.9017 5.5391C10.2324 7.8943 11.134 11.3346 13.7781 12.4834L16.3004 13.5813C17.5006 14.0983 17.8357 15.7258 16.9218 16.6705Z"/>
    <path fill-rule="evenodd" clip-rule="evenodd" d="M18.6083 8.58266C18.6083 9.36557 19.1436 10 19.8042 10C20.4647 10 21 9.36557 21 8.58266C21 7.48253 20.7039 6.44315 20.1515 5.56575C19.7529 4.93807 19.0012 4.81658 18.4773 5.28228C17.9477 5.75473 17.8452 6.64563 18.2382 7.26656C18.4773 7.65126 18.6083 8.10346 18.6083 8.58266Z"/>
  </g>
  </symbol>
  <symbol id="arrow-right" viewBox="0 0 35 28">
  <g>
    <path fill-rule="evenodd" clip-rule="evenodd" d="M19.1212 27.6649L34.0169 15.0505C34.661 14.4992 34.661 13.5016 34.0169 12.9503L19.1146 0.329309C18.2181 -0.425455 16.8102 0.198046 16.8102 1.37942V7.71287H1.8946C1.12425 7.71287 0.5 8.32981 0.5 9.09114V18.9031C0.5 19.6644 1.12425 20.2813 1.8946 20.2813H16.8168V26.6148C16.8168 27.7962 18.2181 28.4328 19.1212 27.6649ZM19.606 9.0977V4.38535L30.962 14.0004L19.606 23.6154V15.3983C19.606 14.637 18.9818 14.0201 18.2114 14.0201C17.4411 14.0201 16.8168 14.637 16.8168 15.3983V17.5248H3.29584V10.476H18.2114C18.9818 10.476 19.606 9.85903 19.606 9.0977Z"/>  </g>
  </symbol>
</svg>

